:SAMPLES-PER-SECOND 30
:FULLY-SPECIFIED
:DEGREES
109
root  -20.7129 37.6016 -9.44213 99.8226 -84.8895 -103.977
RightUpLeg  -12.8518 -7.06904 10.529
RightLeg  41.0394 -4.54625 -4.53372
RightFoot  -22.0398 -0.836122 -7.32168
RightToes  -5.8209e-011 0 -3.6325e-017
Spine  8.8211 -1.59247 12.8241
Spine1  6.39876 0.257162 -0.776368
HEad  -16.0351 2.18138 -3.92451
LeftShoulder1  9.23238 -12.3645 -50.7807
LeftArm  5.57438 21.549 -26.1706
LeftForeArm  174.153 -63.617 -160.578
LeftHand  -0.244104 0.0205437 5.32207
RightShoulder  6.47791 9.90055 42.0587
RightArm  -8.67497 -17.6717 33.4691
RightForeArm  153.493 69.2394 152.216
RightHand  0.292795 -10.8958 -7.33447
LeftUpLeg  -14.7718 -2.06373 9.40234
LeftLeg  76.3951 2.23186 11.9559
LeftFoot  -7.66283 0.0924471 -1.43164
LeftToes  -6.09394e-011 -3.18376e-011 -2.71738e-012
110
root  -23.0209 38.4764 -9.58777 121.113 -86.8068 -124.838
RightUpLeg  -6.90238 -7.15842 7.33231
RightLeg  36.0488 -3.66471 -3.14453
RightFoot  -20.5304 -0.630721 -6.10105
RightToes  -5.8209e-011 0 -3.6325e-017
Spine  8.21631 0.847457 13.0693
Spine1  5.73221 3.55029 -4.94646
HEad  -15.111 -1.7497 -0.598926
LeftShoulder1  8.68003 -11.9262 -49.0933
LeftArm  8.91559 27.9121 -22.0958
LeftForeArm  175.693 -63.1173 -161.129
LeftHand  -0.244104 0.0205437 5.32207
RightShoulder  6.41078 9.81969 41.8612
RightArm  -5.43083 -14.4152 37.3567
RightForeArm  148.142 66.9879 154.443
RightHand  0.317986 -8.69779 -11.9111
LeftUpLeg  -18.3662 -1.02762 6.29524
LeftLeg  68.3806 3.99257 11.7214
LeftFoot  -9.25139 0.0894077 -1.91655
LeftToes  -6.09394e-011 -3.18376e-011 -2.71738e-012
111
root  -25.3511 39.5337 -9.73798 165.788 -88.2311 -168.801
RightUpLeg  -1.20401 -8.30923 3.58498
RightLeg  30.2599 -1.37417 -1.14464
RightFoot  -16.7034 -0.267892 -3.06958
RightToes  -5.8209e-011 0 -3.6325e-017
Spine  7.34404 2.99898 11.4239
Spine1  4.87659 5.79737 -7.13727
HEad  -13.9566 -4.95688 1.84324
LeftShoulder1  7.94539 -11.2488 -46.9895
LeftArm  11.243 33.4083 -18.5837
LeftForeArm  177.566 -62.7764 -161.574
LeftHand  -0.244104 0.0205437 5.32207
RightShoulder  6.27137 9.5541 41.777
RightArm  1.36281 -11.4078 37.1146
RightForeArm  144.94 65.518 155.709
RightHand  0.23048 -7.85027 -12.2809
LeftUpLeg  -20.2666 0.336402 2.79657
LeftLeg  55.9695 6.57264 10.8645
LeftFoot  -10.5673 0.0839259 -2.93575
LeftToes  -6.09394e-011 -3.18376e-011 -2.71738e-012
112
root  -27.7141 40.4785 -9.85237 -138.449 -88.4482 136.624
RightUpLeg  3.25286 -10.6294 0.304392
RightLeg  25.1977 2.35561 0.990662
RightFoot  -10.1797 -0.0862422 0.920267
RightToes  -5.8209e-011 0 -3.6325e-017
Spine  5.02036 4.55388 9.54745
Spine1  4.94657 7.04373 -7.85696
HEad  -11.9492 -7.16218 2.51221
LeftShoulder1  7.67356 -11.2046 -45.4776
LeftArm  11.712 39.4348 -14.9952
LeftForeArm  176.432 -62.1979 -161.893
LeftHand  -0.244104 0.0205437 5.32207
RightShoulder  6.19536 9.57463 41.1649
RightArm  8.25786 -9.02304 35.8777
RightForeArm  151.367 64.6354 157.29
RightHand  0.144302 -10.0341 -5.4367
LeftUpLeg  -21.0168 2.60312 -0.304664
LeftLeg  40.2219 8.00342 7.68797
LeftFoot  -10.365 0.094455 -3.79492
LeftToes  -6.09394e-011 -3.18376e-011 -2.71738e-012
113
root  -30.0372 41.1147 -9.93141 -107.406 -88.3073 106.57
RightUpLeg  5.95881 -11.9299 -1.62541
RightLeg  23.3503 4.35109 1.86225
RightFoot  -2.86803 -0.310899 4.03284
RightToes  -5.8209e-011 0 -3.6325e-017
Spine  2.57431 5.38459 8.16553
Spine1  5.61391 7.58538 -8.003
HEad  -9.95948 -8.25823 2.19153
LeftShoulder1  7.82535 -11.7554 -44.6698
LeftArm  10.5449 45.7478 -11.6562
LeftForeArm  174.682 -60.8989 -162.645
LeftHand  -0.244104 0.0205437 5.32207
RightShoulder  6.19933 9.91587 40.0562
RightArm  14.3077 -7.21532 35.5321
RightForeArm  162.821 63.9384 159.138
RightHand  -0.257861 -11.5019 3.9182
LeftUpLeg  -20.8449 6.76889 -3.25548
LeftLeg  24.1591 6.06085 3.29944
LeftFoot  -9.50271 0.118871 -3.82496
LeftToes  -6.09394e-011 -3.18376e-011 -2.71738e-012
114
root  -32.2534 41.3194 -9.98601 -84.336 -88.4076 83.4955
RightUpLeg  6.82815 -10.3688 -1.95489
RightLeg  26.9289 1.98965 0.818638
RightFoot  1.39626 -0.609295 5.59787
RightToes  -5.8209e-011 0 -3.6325e-017
Spine  1.85202 5.43295 7.07968
Spine1  5.85492 7.43896 -7.72499
HEad  -9.00241 -8.33512 1.90473
LeftShoulder1  7.94758 -12.2306 -43.9681
LeftArm  7.69223 51.1168 -10.1063
LeftForeArm  174.908 -59.4124 -163.638
LeftHand  -0.244104 0.0205437 5.32207
RightShoulder  6.26693 10.2975 39.3051
RightArm  19.7188 -5.53587 35.4028
RightForeArm  169.21 63.5422 160.133
RightHand  -0.470927 -10.7245 8.63574
LeftUpLeg  -19.7404 8.29863 -4.67051
LeftLeg  11.5446 4.97959 -0.815981
LeftFoot  -10.5498 0.0910499 -4.6732
LeftToes  -6.09394e-011 -3.18376e-011 -2.71738e-012
115
root  -34.411 41.0346 -10.0001 -68.9658 -88.7616 67.1277
RightUpLeg  6.40565 -7.29067 -1.48382
RightLeg  35.5778 -2.47977 -2.21834
RightFoot  1.63123 -0.657545 5.87388
RightToes  -5.8209e-011 0 -3.6325e-017
Spine  2.62613 5.0629 6.60226
Spine1  5.63065 6.98491 -7.40753
HEad  -8.75495 -7.8416 1.85381
LeftShoulder1  7.81653 -12.4114 -42.6812
LeftArm  3.33212 54.9638 -11.3823
LeftForeArm  176.517 -58.214 -164.496
LeftHand  -0.244104 0.0205437 5.32207
RightShoulder  6.36447 10.5397 39.2213
RightArm  23.7278 -4.25973 35.1695
RightForeArm  168.846 63.5774 160.065
RightHand  -0.459553 -10.0099 9.68221
LeftUpLeg  -17.8985 1.03986 -2.39351
LeftLeg  4.29526 12.4807 -4.33031
LeftFoot  -12.2386 0.0361743 -5.94054
LeftToes  -6.09394e-011 -3.18376e-011 -2.71738e-012
116
root  -36.57 40.3511 -9.96738 -86.667 -89.1023 83.2507
RightUpLeg  5.28892 -4.05846 -1.5501
RightLeg  46.7389 -5.6447 -6.72427
RightFoot  0.499975 -0.52278 5.0665
RightToes  -5.8209e-011 0 -3.6325e-017
Spine  3.86246 4.71761 6.34839
Spine1  5.58679 6.66756 -7.05224
HEad  -8.89233 -7.04267 1.63661
LeftShoulder1  7.46437 -12.2274 -41.1247
LeftArm  -1.65007 56.8976 -14.6875
LeftForeArm  177.963 -57.0742 -165.257
LeftHand  -0.244104 0.0205437 5.32207
RightShoulder  6.4189 10.6143 39.3607
RightArm  25.533 -3.9251 35.3251
RightForeArm  166.881 63.6371 159.818
RightHand  -0.531759 -10.2018 10.9062
LeftUpLeg  -16.9829 1.20751 -3.1001
LeftLeg  4.34901 13.8417 -4.22949
LeftFoot  -10.1185 0.0804692 -4.04096
LeftToes  -6.09394e-011 -3.18376e-011 -2.71738e-012
117
root  -38.6664 39.4363 -9.93421 -121.676 -87.9682 116.238
RightUpLeg  3.49658 -0.9727 -3.62107
RightLeg  58.0703 -6.07511 -10.7806
RightFoot  0.38091 -0.360077 3.54552
RightToes  -5.8209e-011 0 -3.6325e-017
Spine  5.79482 4.39665 4.08763
Spine1  5.61402 6.14413 -5.62848
HEad  -10.0916 -5.83254 1.0874
LeftShoulder1  6.93402 -11.2855 -40.6073
LeftArm  -6.1903 55.5755 -17.8871
LeftForeArm  178.486 -56.6514 -165.541
LeftHand  -0.244104 0.0205437 5.32207
RightShoulder  6.43822 10.5129 39.8059
RightArm  25.399 -4.33418 35.659
RightForeArm  166.053 64.0446 159.41
RightHand  -0.638594 -10.7775 11.9565
LeftUpLeg  -17.54 7.17426 -6.79226
LeftLeg  11.3525 10.3125 -1.46357
LeftFoot  -3.76351 -0.157059 2.29304
LeftToes  -6.09394e-011 -3.18376e-011 -2.71738e-012
118
root  -40.5575 38.458 -9.93162 -109.135 -85.1917 101.414
RightUpLeg  0.637144 1.39006 -8.12301
RightLeg  67.8789 -4.33108 -12.2168
RightFoot  0.845192 -0.221656 2.12404
RightToes  -5.8209e-011 0 -3.6325e-017
Spine  8.93414 3.9206 -0.808056
Spine1  5.19526 4.98592 -3.41984
HEad  -12.45 -4.40765 0.681102
LeftShoulder1  6.46239 -9.88232 -41.9024
LeftArm  -9.58399 49.8996 -19.3123
LeftForeArm  177.867 -59.0393 -164.085
LeftHand  -0.244104 0.0205437 5.32207
RightShoulder  6.57299 10.3398 41.2652
RightArm  23.6925 -5.27933 35.8825
RightForeArm  164.318 66.805 156.482
RightHand  -0.541937 -10.7874 9.79939
LeftUpLeg  -19.136 14.2006 -12.9103
LeftLeg  21.3669 3.76257 2.53072
LeftFoot  0.725621 -0.948196 9.21499
LeftToes  -6.09394e-011 -3.18376e-011 -2.71738e-012
